<?xml version="1.0" encoding="UTF-8"?>
<svg version="1.1" xmlns="http://www.w3.org/2000/svg" width="1024" height="1024">
<path d="M0 0 C337.92 0 675.84 0 1024 0 C1024 337.92 1024 675.84 1024 1024 C686.08 1024 348.16 1024 0 1024 C0 686.08 0 348.16 0 0 Z " fill="#333333" transform="translate(0,0)"/>
<path d="M0 0 C1.80887695 0.00193359 1.80887695 0.00193359 3.65429688 0.00390625 C11.86149671 0.08547974 18.22127524 0.49478739 24.4375 6.375 C27.4375 11.375 27.4375 11.375 27.4375 35.375 C72.3175 35.375 117.1975 35.375 163.4375 35.375 C163.4375 27.455 163.4375 19.535 163.4375 11.375 C170.13649988 1.99640017 170.13649988 1.99640017 175.4375 0.375 C179.92998084 -0.18220693 184.35330088 -0.18362819 188.875 -0.125 C190.06416016 -0.14046875 191.25332031 -0.1559375 192.47851562 -0.171875 C200.51444708 -0.13617958 206.18539674 0.54309238 212.23852539 5.99804688 C217.28152335 11.64726271 217.16788182 17.09422883 216.8125 24.375 C216.78542969 25.43589844 216.75835938 26.49679687 216.73046875 27.58984375 C216.66027383 30.18705579 216.56201781 32.77992105 216.4375 35.375 C218.22994141 35.35566406 218.22994141 35.35566406 220.05859375 35.3359375 C241.75590449 35.36454305 261.46638096 45.95047593 276.84765625 60.68359375 C283.08566299 67.19979633 287.31067885 74.43086929 291.4375 82.375 C291.8603125 83.16777344 292.283125 83.96054687 292.71875 84.77734375 C299.7542801 99.08825156 298.80667989 114.75350533 298.625 130.25 C298.60992227 132.49868893 298.59623935 134.74738767 298.58398438 136.99609375 C298.55123235 142.45594634 298.50127939 147.91542624 298.4375 153.375 C297.69516113 153.40940186 296.95282227 153.44380371 296.18798828 153.47924805 C229.46840461 156.78295843 166.67293334 183.82402007 118.4375 230.375 C117.71336914 231.07189941 116.98923828 231.76879883 116.24316406 232.48681641 C104.92799431 243.43467053 94.70050258 254.49587434 85.625 267.34765625 C85.16359619 268.00016357 84.70219238 268.6526709 84.22680664 269.32495117 C83.34493105 270.58079171 82.47128928 271.84246667 81.60717773 273.1105957 C80.5985985 274.56649986 79.52383594 275.97615647 78.4375 277.375 C77.7775 277.375 77.1175 277.375 76.4375 277.375 C75.28455431 275.64868078 74.21937891 273.86380167 73.1875 272.0625 C64.81937979 257.96829991 54.73492505 245.20951575 43.4375 233.375 C42.24130109 232.007561 41.05284327 230.63328105 39.875 229.25 C33.27683457 221.68013325 26.12290695 214.90773327 18.2734375 208.65234375 C15.35481518 206.30860158 12.52644276 203.87685966 9.6875 201.4375 C2.96495901 195.83970846 -4.15791422 191.02215362 -11.5625 186.375 C-12.21847168 185.9625 -12.87444336 185.55 -13.55029297 185.125 C-39.50556314 168.97000568 -67.48708678 156.83075707 -98.13671875 154.26953125 C-99.14456421 154.18175415 -100.15240967 154.09397705 -101.1907959 154.00354004 C-103.64772169 153.79011601 -106.10491572 153.58067761 -108.5625 153.375 C-108.66285265 147.29594508 -108.73465459 141.2173928 -108.78222656 135.13769531 C-108.80209875 133.07803936 -108.8292061 131.01843793 -108.86425781 128.95898438 C-109.13645438 112.5311208 -108.45337713 96.32310845 -100.8125 81.375 C-100.46743408 80.67552246 -100.12236816 79.97604492 -99.7668457 79.25537109 C-96.73571401 73.3169678 -93.12491148 68.24811333 -88.5625 63.375 C-87.74007813 62.46234375 -86.91765625 61.5496875 -86.0703125 60.609375 C-73.20000951 46.95566226 -55.3220559 37.48180795 -36.5625 35.375 C-32.89454145 35.30501293 -29.23061194 35.32375462 -25.5625 35.375 C-25.58868408 34.72015625 -25.61486816 34.0653125 -25.6418457 33.390625 C-25.74662664 30.38566675 -25.81107941 27.38109401 -25.875 24.375 C-25.91689453 23.34503906 -25.95878906 22.31507813 -26.00195312 21.25390625 C-26.11187951 14.35052909 -25.3721726 9.53209816 -20.5625 4.375 C-14.35305977 -0.81180514 -7.81016077 -0.15913464 0 0 Z " fill="#B24930" transform="translate(416.5625,323.625)"/>
<path d="M0 0 C2.06444073 -0.0111439 4.12889903 -0.01906102 6.19335938 -0.02563477 C7.34300171 -0.03039322 8.49264404 -0.03515167 9.67712402 -0.04005432 C62.95970003 0.60221985 114.31253676 39.64914449 150 75.91015625 C185 112.48242188 185 112.48242188 185 124 C185.66 124 186.32 124 187 124 C190 130 190 130 190.95581055 131.92041016 C192.57806856 135.17608943 194.21346821 138.42268471 195.89453125 141.6484375 C208.45218032 165.89991378 222.16290609 195.23690654 222 223 C202.53658912 223.07024482 183.07320416 223.12306373 163.60969257 223.15543652 C154.57137615 223.1708708 145.53313874 223.19189417 136.49487305 223.22631836 C128.61229035 223.25632643 120.7297649 223.27559996 112.84712666 223.28226548 C108.67770399 223.28615852 104.50844502 223.29523503 100.33907509 223.31719017 C96.40499576 223.3377361 92.47114571 223.34379773 88.53701782 223.33932304 C87.10245195 223.34014023 85.66787743 223.34599718 84.23335838 223.35761642 C60.73623671 223.53840709 40.96443162 214.8283815 24.125 198.5625 C1.12357261 174.42930918 -0.63892388 146.19180572 -0.40557575 114.49047375 C-0.38021865 110.45203121 -0.37819354 106.41357091 -0.37347412 102.37506104 C-0.36114346 94.76118142 -0.32845925 87.14753722 -0.28807616 79.53376031 C-0.24304589 70.8515121 -0.22129362 62.16925141 -0.20129442 53.48691511 C-0.15971522 35.65781098 -0.08956063 17.82892455 0 0 Z " fill="#276C34" transform="translate(308,477)"/>
<path d="M0 0 C0.093846 19.09899847 0.16417503 38.19794953 0.20724869 57.29713154 C0.22778879 66.1671607 0.2557437 75.0370458 0.30175781 83.90698242 C0.34188975 91.64679213 0.36749478 99.3864974 0.37635398 107.12640828 C0.38152461 111.21671604 0.39349393 115.30672528 0.42292023 119.39693642 C0.63766841 150.50573134 -2.15416316 176.52139735 -24.6953125 199.78125 C-34.346308 208.90982694 -45.3364311 215.82316397 -58 220 C-58.76407669 220.25697159 -59.52815338 220.51394318 -60.31538391 220.77870178 C-72.29730114 224.14221038 -84.65502666 223.37399864 -96.98828125 223.29296875 C-99.5031865 223.28736518 -102.01809505 223.28309868 -104.53300476 223.28010559 C-110.44357868 223.26987671 -116.35397795 223.24630665 -122.26448077 223.21605712 C-129.66522243 223.17901609 -137.06598602 223.16307523 -144.46679688 223.14648438 C-157.644617 223.11442563 -170.82229767 223.06388864 -184 223 C-183.85046468 221.23808753 -183.69790496 219.47643157 -183.54406738 217.71488953 C-183.45943489 216.73384089 -183.3748024 215.75279226 -183.28760529 214.74201488 C-182.95830576 211.60248912 -182.32863694 208.68081642 -181.46875 205.64453125 C-181.00214966 203.98780396 -181.00214966 203.98780396 -180.52612305 202.29760742 C-180.18750244 201.14752197 -179.84888184 199.99743652 -179.5 198.8125 C-179.14397705 197.59216064 -178.7879541 196.37182129 -178.42114258 195.11450195 C-172.40614349 174.9120219 -164.60341035 155.75795744 -155 137 C-154.66709961 136.34950684 -154.33419922 135.69901367 -153.99121094 135.02880859 C-144.6524832 117.12202483 -132.65040873 100.10716654 -119.52929688 84.78955078 C-117.99738249 82.99693704 -116.48915445 81.18651525 -114.984375 79.37109375 C-105.80039086 68.3691963 -95.84476635 58.36234082 -85 49 C-84.11175537 48.21967407 -84.11175537 48.21967407 -83.20556641 47.42358398 C-63.60626925 30.27351788 -27.2949121 -0.68352643 0 0 Z " fill="#323E7F" transform="translate(715,477)"/>
<path d="M0 0 C121.11 0 242.22 0 367 0 C367 0.33 367 0.66 367 1 C365.93193115 1.16435547 365.93193115 1.16435547 364.84228516 1.33203125 C346.99722894 4.14020898 330.10847142 8.17357618 313 14 C312.24895996 14.24830566 311.49791992 14.49661133 310.72412109 14.75244141 C280.15294657 24.91825999 252.05296387 41.98914207 227 62 C226.04738281 62.74636719 225.09476563 63.49273438 224.11328125 64.26171875 C206.43682723 78.61084025 190.3253108 95.3822272 177.203125 113.95703125 C176.73946533 114.61179443 176.27580566 115.26655762 175.7980957 115.94116211 C174.9124766 117.19990765 174.03550836 118.46479916 173.16870117 119.73657227 C172.16055561 121.19222279 171.08605659 122.60151618 170 124 C169.34 124 168.68 124 168 124 C166.84705431 122.27368078 165.78187891 120.48880167 164.75 118.6875 C156.38187979 104.59329991 146.29742505 91.83451575 135 80 C133.80380109 78.632561 132.61534327 77.25828105 131.4375 75.875 C124.83933457 68.30513325 117.68540695 61.53273327 109.8359375 55.27734375 C106.91731518 52.93360158 104.08894276 50.50185966 101.25 48.0625 C94.52745901 42.46470846 87.40458578 37.64715362 80 33 C79.01604248 32.38125 79.01604248 32.38125 78.01220703 31.75 C55.34958998 17.64440806 31.23993257 7.07341732 5 2 C3.33333333 1.66666667 1.66666667 1.33333333 0 1 C0 0.67 0 0.34 0 0 Z " fill="#E7EAEC" transform="translate(325,477)"/>
<path d="M0 0 C-2.01374526 2.01374526 -3.16406916 2.60646432 -5.75390625 3.62890625 C-6.8982312 4.09018921 -6.8982312 4.09018921 -8.06567383 4.56079102 C-8.88962646 4.89135498 -9.7135791 5.22191895 -10.5625 5.5625 C-38.03998503 16.94525324 -61.98505577 33.95643685 -83.83984375 54.0234375 C-85.88115416 55.89125498 -87.96188623 57.69947391 -90.0625 59.5 C-97.27635627 65.81574565 -103.67019803 72.6014619 -109.64453125 80.09765625 C-111.20218437 82.01695354 -112.80392637 83.901372 -114.44921875 85.74609375 C-127.30064856 100.21115601 -137.86014981 116.98163775 -147 134 C-147.76847681 135.36127288 -148.53807907 136.72191081 -149.30859375 138.08203125 C-163.2674254 163.14954842 -173.66894867 191.58005364 -178 220 C-178.66 220 -179.32 220 -180 220 C-180.1451001 219.35788574 -180.2902002 218.71577148 -180.43969727 218.05419922 C-187.55045463 186.85772498 -197.22372938 156.29325288 -214.1875 128.89453125 C-215.33748513 126.21307553 -215.51633099 124.92036809 -215 122 C-213.31249666 119.13422828 -211.26894958 116.58825747 -209.1875 114 C-208.58784424 113.24017822 -207.98818848 112.48035645 -207.37036133 111.69750977 C-206.15032402 110.15938494 -204.9240472 108.62618749 -203.69140625 107.09814453 C-202.28806665 105.35733902 -200.90615568 103.60303298 -199.53125 101.83984375 C-186.1818575 85.30884604 -170.27028767 69.38127241 -153 57 C-151.85158439 56.12708479 -150.70583355 55.25065488 -149.5625 54.37109375 C-107.78246693 22.50342195 -53.24441311 -1.10414682 0 0 Z " fill="#132639" transform="translate(710,477)"/>
<path d="M0 0 C1.80887695 0.00193359 1.80887695 0.00193359 3.65429688 0.00390625 C11.86149671 0.08547974 18.22127524 0.49478739 24.4375 6.375 C27.4375 11.375 27.4375 11.375 27.4375 35.375 C72.3175 35.375 117.1975 35.375 163.4375 35.375 C163.4375 27.455 163.4375 19.535 163.4375 11.375 C170.13649988 1.99640017 170.13649988 1.99640017 175.4375 0.375 C179.92998084 -0.18220693 184.35330088 -0.18362819 188.875 -0.125 C190.06416016 -0.14046875 191.25332031 -0.1559375 192.47851562 -0.171875 C200.51444708 -0.13617958 206.18539674 0.54309238 212.23852539 5.99804688 C217.28152335 11.64726271 217.16788182 17.09422883 216.8125 24.375 C216.77189453 25.96634766 216.77189453 25.96634766 216.73046875 27.58984375 C216.66027383 30.18705579 216.56201781 32.77992105 216.4375 35.375 C219.0775 35.375 221.7175 35.375 224.4375 35.375 C224.4375 35.705 224.4375 36.035 224.4375 36.375 C221.7975 36.375 219.1575 36.375 216.4375 36.375 C216.46106567 38.22847046 216.46106567 38.22847046 216.48510742 40.11938477 C216.53960151 44.72446112 216.57392082 49.32950921 216.60229492 53.93481445 C216.61733724 55.9241211 216.63777623 57.91339483 216.66381836 59.90258789 C216.70040246 62.76977689 216.71727218 65.63652559 216.73046875 68.50390625 C216.74595261 69.38647598 216.76143646 70.26904572 216.77738953 71.17835999 C216.77903204 77.26979299 216.06266397 82.32598143 211.9375 87.1171875 C205.39286861 92.05974766 199.80732091 91.65540578 191.83325195 91.72509766 C190.45319684 91.74159427 189.07322494 91.76880154 187.69360352 91.80712891 C172.8986095 92.21529115 172.8986095 92.21529115 166.4375 86.375 C162.4375 78.375 162.4375 78.375 163.4375 36.375 C118.5575 36.375 73.6775 36.375 27.4375 36.375 C27.4375 50.895 27.4375 65.415 27.4375 80.375 C22.05899094 89.78739086 22.05899094 89.78739086 16.4375 91.375 C11.94559678 91.8427304 7.50290778 91.90912558 2.99438477 91.84155273 C0.87632157 91.81251812 -1.23924358 91.82098038 -3.35742188 91.83398438 C-14.9051445 91.781079 -14.9051445 91.781079 -20.5625 88.375 C-25.30458489 83.3765862 -25.68069233 79.61738049 -25.75537109 72.89746094 C-25.77143402 71.58219421 -25.78749695 70.26692749 -25.80404663 68.9118042 C-25.81553533 67.47766775 -25.82614366 66.04352402 -25.8359375 64.609375 C-25.84126118 63.88384682 -25.84658485 63.15831863 -25.85206985 62.41080475 C-25.87875453 58.56961628 -25.89814331 54.72845977 -25.91259766 50.88720703 C-25.92592573 47.71926936 -25.95376274 44.55197753 -25.99462891 41.38427734 C-26.04411441 37.54757794 -26.06873758 33.71146317 -26.07582474 29.87445831 C-26.08250962 28.41847594 -26.09765939 26.96250521 -26.12171555 25.50670624 C-26.35481186 10.54580757 -26.35481186 10.54580757 -20.5625 4.375 C-14.35305977 -0.81180514 -7.81016077 -0.15913464 0 0 Z " fill="#815737" transform="translate(416.5625,323.625)"/>
<path d="M0 0 C0.66 0 1.32 0 2 0 C2.51046875 1.17755859 2.51046875 1.17755859 3.03125 2.37890625 C8.05320028 13.26425062 13.78827324 18.82155554 25 23 C25 23.66 25 24.32 25 25 C24.21496094 25.3403125 23.42992187 25.680625 22.62109375 26.03125 C11.73574938 31.05320028 6.17844446 36.78827324 2 48 C1.34 48 0.68 48 0 48 C-0.3403125 47.21496094 -0.680625 46.42992187 -1.03125 45.62109375 C-6.05320028 34.73574938 -11.78827324 29.17844446 -23 25 C-23 24.34 -23 23.68 -23 23 C-22.21496094 22.6596875 -21.42992187 22.319375 -20.62109375 21.96875 C-9.73574938 16.94679972 -4.17844446 11.21172676 0 0 Z " fill="#969696" transform="translate(967,944)"/>
<path d="M0 0 C8.58 0 17.16 0 26 0 C26 0.33 26 0.66 26 1 C20.39 1.66 14.78 2.32 9 3 C9 2.34 9 1.68 9 1 C6.03 1 3.06 1 0 1 C0 0.67 0 0.34 0 0 Z " fill="#E2E2E3" transform="translate(666,477)"/>
</svg>
